<mxfile host="Electron" modified="2025-07-27T19:32:16.713Z" agent="Mozilla/5.0 (Windows NT 10.0; Win64; x64) AppleWebKit/537.36 (KHTML, like Gecko) draw.io/23.1.5 Chrome/120.0.6099.109 Electron/28.1.0 Safari/537.36" etag="BXOuUk8tbssLpvrlJyny" version="23.1.5" type="device">
  <diagram name="Page-1" id="2KYvExtTbpfc62TGC_BO">
    <mxGraphModel dx="1050" dy="621" grid="1" gridSize="10" guides="1" tooltips="1" connect="1" arrows="1" fold="1" page="1" pageScale="1" pageWidth="827" pageHeight="1169" math="0" shadow="0">
      <root>
        <mxCell id="0" />
        <mxCell id="1" parent="0" />
        <mxCell id="w-aXNvIqZVoaLgGJY4dh-8" style="edgeStyle=orthogonalEdgeStyle;rounded=0;orthogonalLoop=1;jettySize=auto;html=1;entryX=0;entryY=0.5;entryDx=0;entryDy=0;startArrow=block;startFill=0;" edge="1" parent="1" source="w-aXNvIqZVoaLgGJY4dh-1" target="w-aXNvIqZVoaLgGJY4dh-2">
          <mxGeometry relative="1" as="geometry" />
        </mxCell>
        <mxCell id="w-aXNvIqZVoaLgGJY4dh-10" style="edgeStyle=orthogonalEdgeStyle;rounded=0;orthogonalLoop=1;jettySize=auto;html=1;entryX=0;entryY=0.5;entryDx=0;entryDy=0;" edge="1" parent="1" source="w-aXNvIqZVoaLgGJY4dh-1" target="w-aXNvIqZVoaLgGJY4dh-5">
          <mxGeometry relative="1" as="geometry">
            <Array as="points">
              <mxPoint x="300" y="310" />
            </Array>
          </mxGeometry>
        </mxCell>
        <mxCell id="w-aXNvIqZVoaLgGJY4dh-1" value="Login - TriAi" style="rounded=0;whiteSpace=wrap;html=1;" vertex="1" parent="1">
          <mxGeometry x="200" y="120" width="120" height="60" as="geometry" />
        </mxCell>
        <mxCell id="w-aXNvIqZVoaLgGJY4dh-9" style="edgeStyle=orthogonalEdgeStyle;rounded=0;orthogonalLoop=1;jettySize=auto;html=1;entryX=1;entryY=0.5;entryDx=0;entryDy=0;" edge="1" parent="1" source="w-aXNvIqZVoaLgGJY4dh-2" target="w-aXNvIqZVoaLgGJY4dh-5">
          <mxGeometry relative="1" as="geometry">
            <Array as="points">
              <mxPoint x="580" y="310" />
            </Array>
          </mxGeometry>
        </mxCell>
        <mxCell id="w-aXNvIqZVoaLgGJY4dh-2" value="Sign-up" style="rounded=0;whiteSpace=wrap;html=1;" vertex="1" parent="1">
          <mxGeometry x="510" y="120" width="120" height="60" as="geometry" />
        </mxCell>
        <mxCell id="w-aXNvIqZVoaLgGJY4dh-6" style="edgeStyle=orthogonalEdgeStyle;rounded=0;orthogonalLoop=1;jettySize=auto;html=1;entryX=0;entryY=0.5;entryDx=0;entryDy=0;" edge="1" parent="1" source="w-aXNvIqZVoaLgGJY4dh-3" target="w-aXNvIqZVoaLgGJY4dh-4">
          <mxGeometry relative="1" as="geometry" />
        </mxCell>
        <mxCell id="w-aXNvIqZVoaLgGJY4dh-7" style="edgeStyle=orthogonalEdgeStyle;rounded=0;orthogonalLoop=1;jettySize=auto;html=1;entryX=0.5;entryY=1;entryDx=0;entryDy=0;startArrow=classic;startFill=0;" edge="1" parent="1" source="w-aXNvIqZVoaLgGJY4dh-3" target="w-aXNvIqZVoaLgGJY4dh-1">
          <mxGeometry relative="1" as="geometry" />
        </mxCell>
        <mxCell id="w-aXNvIqZVoaLgGJY4dh-3" value="Doctor Login" style="rounded=0;whiteSpace=wrap;html=1;" vertex="1" parent="1">
          <mxGeometry x="200" y="390" width="120" height="60" as="geometry" />
        </mxCell>
        <mxCell id="w-aXNvIqZVoaLgGJY4dh-4" value="Dashboard" style="rounded=0;whiteSpace=wrap;html=1;" vertex="1" parent="1">
          <mxGeometry x="540" y="390" width="120" height="60" as="geometry" />
        </mxCell>
        <mxCell id="w-aXNvIqZVoaLgGJY4dh-5" value="Index/Chat" style="rounded=0;whiteSpace=wrap;html=1;" vertex="1" parent="1">
          <mxGeometry x="380" y="280" width="120" height="60" as="geometry" />
        </mxCell>
      </root>
    </mxGraphModel>
  </diagram>
</mxfile>
